<svg width="20" height="18" viewBox="0 0 20 18" fill="none" xmlns="http://www.w3.org/2000/svg">
<path d="M8.575 2.21665L1.51667 14C1.37114 14.252 1.29414 14.5377 1.29333 14.8288C1.29251 15.1198 1.36791 15.4059 1.51202 15.6588C1.65614 15.9116 1.86394 16.1223 2.11476 16.2699C2.36558 16.4174 2.65067 16.4968 2.94167 16.5H17.0583C17.3493 16.4968 17.6344 16.4174 17.8852 16.2699C18.1361 16.1223 18.3439 15.9116 18.488 15.6588C18.6321 15.4059 18.7075 15.1198 18.7067 14.8288C18.7059 14.5377 18.6289 14.252 18.4833 14L11.425 2.21665C11.2764 1.97174 11.0673 1.76925 10.8177 1.62872C10.5681 1.48819 10.2864 1.41437 10 1.41437C9.71356 1.41437 9.43194 1.48819 9.18234 1.62872C8.93273 1.76925 8.72356 1.97174 8.575 2.21665Z" stroke="#7E96FF" stroke-width="2" stroke-linecap="round" stroke-linejoin="round"/>
</svg>
